<?xml version="1.0" encoding="UTF-8"?>
<svg width="150px" height="45px" viewBox="0 0 150 45" version="1.1" xmlns="http://www.w3.org/2000/svg" xmlns:xlink="http://www.w3.org/1999/xlink">
    <!-- Generator: Sketch 53 (72520) - https://sketchapp.com -->
    <title>assets/logo-tripit</title>
    <desc>Created with Sketch.</desc>
    <g id="assets/logo-tripit" stroke="none" stroke-width="1" fill="none" fill-rule="evenodd">
        <g id="from-Concur" transform="translate(87.000000, 34.000000)" fill="#107AC5">
            <path d="M58.8037385,7.0001 L60.1165846,2.10040769 L61.4052,2.10040769 L61.2286615,2.75971538 C61.6975846,2.33348462 62.3912769,1.97856154 63.0000462,1.97856154 L62.6628923,3.23648462 C62.5770462,3.21663846 62.4676615,3.20671538 62.3151231,3.20671538 C61.8898154,3.20671538 61.2558923,3.44948462 60.9595846,3.76379231 L60.0923538,7.0001 L58.8037385,7.0001 Z" id="Fill-19"></path>
            <path d="M56.4367154,7.0001 L56.6024077,6.38163846 C56.1697154,6.74625385 55.4813308,7.12194615 54.6794077,7.12194615 C53.6037923,7.12194615 53.2551,6.53325385 53.5105615,5.57971538 L54.4428692,2.10040769 L55.7314846,2.10040769 L54.9348692,5.07317692 C54.7530231,5.7521 55.0477154,5.97617692 55.5948692,5.97617692 C56.0926385,5.97617692 56.5615615,5.70156154 56.8606385,5.41817692 L57.7495615,2.10040769 L59.0381769,2.10040769 L57.7253308,7.0001 L56.4367154,7.0001 Z" id="Fill-17"></path>
            <path d="M48.6114923,4.54584615 C49.0139538,3.04423077 50.3946462,1.97853846 51.8962615,1.97853846 C52.9005692,1.97853846 53.3921077,2.41469231 53.5965692,2.86169231 L52.5431077,3.65276923 C52.4016462,3.30776923 52.0956462,3.12546154 51.6495692,3.12546154 C50.8684154,3.12546154 50.1680308,3.69338462 49.9398,4.54584615 C49.7115692,5.39738462 50.1045692,5.97615385 50.8857231,5.97615385 C51.3318,5.97615385 51.7409538,5.77307692 52.0647231,5.438 L52.6942615,6.22884615 C52.2504923,6.67607692 51.5221846,7.12192308 50.5181077,7.12192308 C49.0164923,7.12192308 48.2067231,6.05646154 48.6114923,4.54584615" id="Fill-15"></path>
            <path d="M45.9000692,7.0001 L46.6936846,4.03840769 C46.8757615,3.35833077 46.5833769,3.12548462 46.0353,3.12548462 C45.5287615,3.12548462 45.0672231,3.40886923 44.7679154,3.69340769 L43.8819923,7.0001 L42.5933769,7.0001 L43.9062231,2.10040769 L45.1948385,2.10040769 L45.0261462,2.72994615 C45.4383,2.36417692 46.1502231,1.97856154 46.9413,1.97856154 C48.0266077,1.97856154 48.3810692,2.5871 48.1253769,3.54063846 L47.1986077,7.0001 L45.9000692,7.0001 Z" id="Fill-13"></path>
            <path d="M41.1476077,4.54584615 C41.3516077,3.78453846 41.0820692,3.12546154 40.2704538,3.12546154 C39.4694538,3.12546154 38.8456846,3.78453846 38.6419154,4.54584615 C38.4353769,5.31592308 38.7056077,5.97615385 39.5066077,5.97615385 C40.3182231,5.97615385 40.9413,5.31592308 41.1476077,4.54584615 M37.3036846,4.54584615 C37.6763769,3.15523077 38.9649923,1.97853846 40.5776077,1.97853846 C42.2013,1.97853846 42.8594538,3.15523077 42.4867615,4.54584615 C42.1143,5.93553846 40.8231462,7.12192308 39.1994538,7.12192308 C37.5868385,7.12192308 36.9312231,5.93553846 37.3036846,4.54584615" id="Fill-11"></path>
            <path d="M30.801,3.62203077 C31.3608462,1.53264615 33.3108462,0.121953846 35.3499231,0.121953846 C36.8316923,0.121953846 37.4792308,0.923876923 37.7275385,1.77633846 L36.3265385,2.38487692 C36.1887692,1.8368 35.697,1.40064615 35.0072308,1.40064615 C33.7700769,1.40064615 32.6243077,2.34426154 32.2818462,3.62203077 C31.9391538,4.90072308 32.5795385,5.84433846 33.8164615,5.84433846 C34.5064615,5.84433846 35.2322308,5.40726154 35.6633077,4.86010769 L36.7407692,5.45872308 C36.0385385,6.30033846 34.956,7.12210769 33.4742308,7.12210769 C31.4351538,7.12210769 30.2436923,5.70172308 30.801,3.62203077" id="Fill-9"></path>
            <path d="M25.4056154,7.0001 L26.2345385,3.90640769 C26.3570769,3.44948462 26.2405385,3.12548462 25.7132308,3.12548462 C25.2572308,3.12548462 24.8000769,3.42963846 24.5471538,3.69340769 L23.661,7.0001 L22.3624615,7.0001 L23.1913846,3.90640769 C23.3139231,3.44948462 23.1976154,3.12548462 22.6703077,3.12548462 C22.2242308,3.12548462 21.7670769,3.42963846 21.504,3.69340769 L20.6180769,7.0001 L19.3294615,7.0001 L20.6423077,2.10040769 L21.9309231,2.10040769 L21.7622308,2.72994615 C22.0504615,2.44540769 22.815,1.97856154 23.5663846,1.97856154 C24.2859231,1.97856154 24.663,2.31363846 24.6886154,2.86171538 C25.0899231,2.42556154 25.8590769,1.97856154 26.6093077,1.97856154 C27.5123077,1.97856154 27.9219231,2.45533077 27.6528462,3.45940769 L26.7041538,7.0001 L25.4056154,7.0001 Z" id="Fill-7"></path>
            <path d="M17.8827,4.54584615 C18.0867,3.78453846 17.8171615,3.12546154 17.0055462,3.12546154 C16.2045462,3.12546154 15.5807769,3.78453846 15.3770077,4.54584615 C15.1704692,5.31592308 15.4407,5.97615385 16.2417,5.97615385 C17.0533154,5.97615385 17.6763923,5.31592308 17.8827,4.54584615 M14.0378538,4.54584615 C14.4103154,3.15523077 15.7000846,1.97853846 17.3127,1.97853846 C18.9363923,1.97853846 19.5945462,3.15523077 19.2218538,4.54584615 C18.8493923,5.93553846 17.5582385,7.12192308 15.9345462,7.12192308 C14.3219308,7.12192308 13.6653923,5.93553846 14.0378538,4.54584615" id="Fill-5"></path>
            <path d="M10.2449308,7.0001 L11.5577769,2.10040769 L12.8463923,2.10040769 L12.6696231,2.75971538 C13.1387769,2.33348462 13.8324692,1.97856154 14.4412385,1.97856154 L14.1040846,3.23648462 C14.0182385,3.21663846 13.9088538,3.20671538 13.7563154,3.20671538 C13.3310077,3.20671538 12.6970846,3.44948462 12.4007769,3.76379231 L11.5335462,7.0001 L10.2449308,7.0001 Z" id="Fill-3"></path>
            <path d="M7.42292308,7.0001 L8.43415385,3.22656154 L7.62276923,3.22656154 L7.92438462,2.10040769 L8.73576923,2.10040769 L8.79023077,1.89733077 C9.08630769,0.792176923 9.92261538,0.132869231 10.9063846,0.132869231 C11.3831538,0.132869231 11.8553077,0.264869231 12.0597692,0.598792308 L11.3637692,1.37994615 C11.2643077,1.25902308 11.1110769,1.18748462 10.8775385,1.18748462 C10.5122308,1.18748462 10.2064615,1.42056154 10.0788462,1.89733077 L10.0243846,2.10040769 L11.0185385,2.10040769 L10.7169231,3.22656154 L9.72253846,3.22656154 L8.71153846,7.0001 L7.42292308,7.0001 Z" id="Fill-1"></path>
            <path d="M2.98382308,2.88527692 L2.14036154,2.88527692 L2.14036154,4.00127692 L2.98382308,4.00127692 C3.25566923,4.00127692 3.55451538,3.78043077 3.55451538,3.45689231 C3.55451538,3.10589231 3.25566923,2.88527692 2.98382308,2.88527692 L2.98382308,2.88527692 Z M3.50213077,5.64873846 L2.68497692,4.40281538 L2.14036154,4.40281538 L2.14036154,5.64873846 L1.69913077,5.64873846 L1.69913077,2.49643077 L2.98382308,2.49643077 C3.51528462,2.49643077 4.00820769,2.87258462 4.00820769,3.45689231 C4.00820769,4.15681538 3.38582308,4.39012308 3.20397692,4.39012308 L4.04743846,5.64873846 L3.50213077,5.64873846 Z M2.74959231,1.73143077 C1.45266923,1.73143077 0.415130769,2.75512308 0.415130769,4.06635385 C0.415130769,5.35035385 1.45266923,6.40127692 2.74959231,6.40127692 C4.04743846,6.40127692 5.08474615,5.35035385 5.08474615,4.06635385 C5.08474615,2.75512308 4.04743846,1.73143077 2.74959231,1.73143077 L2.74959231,1.73143077 Z M2.74959231,6.81550769 C1.23228462,6.81550769 -2.30769228e-05,5.58366154 -2.30769228e-05,4.06635385 C-2.30769228e-05,2.53612308 1.23228462,1.31535385 2.74959231,1.31535385 C4.28074615,1.31535385 5.4999,2.53612308 5.4999,4.06635385 C5.4999,5.58366154 4.28074615,6.81550769 2.74959231,6.81550769 L2.74959231,6.81550769 Z" id="Fill-22"></path>
        </g>
        <g id="Atom" transform="translate(35.000000, 0.000000)" fill="#107AC5">
            <path d="M30.5081615,15.0000462 C30.5081615,14.7602769 30.5273154,14.5246615 30.5614692,14.2934308 L7.68900769,14.4672 C7.40585385,13.0650462 6.02931538,12.0000462 4.37031538,12.0000462 C2.50639231,12.0000462 0.995315385,13.3431231 0.995315385,15.0000462 C0.995315385,16.6569692 2.50639231,18.0000462 4.37031538,18.0000462 C6.02931538,18.0000462 7.40585385,16.9350462 7.68900769,15.5328923 L30.5614692,15.7066615 C30.5273154,15.4754308 30.5081615,15.2398154 30.5081615,15.0000462" id="Fill-37"></path>
            <path d="M41.3188692,12.5059615 L48.6704846,7.57073077 C49.0237923,7.88480769 49.4876385,8.0775 49.9978692,8.0775 C51.1023308,8.0775 51.9977154,7.18211538 51.9977154,6.07742308 C51.9977154,4.97296154 51.1023308,4.07734615 49.9978692,4.07734615 C48.8931769,4.07734615 47.9977923,4.97296154 47.9977923,6.07742308 C47.9977923,6.28880769 48.0310231,6.49234615 48.0919462,6.68365385 L40.4966385,11.4529615 C40.8155615,11.7705 41.0924846,12.1238077 41.3188692,12.5059615" id="Fill-39"></path>
            <path d="M31.2145923,17.5222385 L27.6595923,19.9393154 C27.3074385,19.6296231 26.8468231,19.4403923 26.3409769,19.4403923 C25.2362846,19.4403923 24.3409,20.3357769 24.3409,21.4402385 C24.3409,22.5449308 25.2362846,23.4403154 26.3409769,23.4403154 C27.4454385,23.4403154 28.3410538,22.5449308 28.3410538,21.4402385 C28.3410538,21.2330077 28.3094385,21.0329308 28.2508231,20.8448538 L31.9959769,18.5237769 C31.6948231,18.2200846 31.4322077,17.8840846 31.2145923,17.5222385" id="Fill-41"></path>
            <path d="M36.2581692,6.92307692e-05 C34.6012462,6.92307692e-05 33.2581692,1.34314615 33.2581692,3.00006923 C33.2581692,4.46476154 34.3086308,5.68253077 35.6967077,5.94560769 L35.6168615,9.7833 C35.8275538,9.76206923 36.0412462,9.75006923 36.2581692,9.75006923 C36.4750923,9.75006923 36.6887846,9.76206923 36.8994769,9.7833 L36.8196308,5.94560769 C38.2077077,5.68253077 39.2581692,4.46476154 39.2581692,3.00006923 C39.2581692,1.34314615 37.9150923,6.92307692e-05 36.2581692,6.92307692e-05" id="Fill-43"></path>
            <path d="M58.2580923,12.0000692 C56.7837077,12.0000692 55.5601692,13.0646077 55.3081692,14.4665308 L41.9577077,14.3149154 C41.9897846,14.5392231 42.0080154,14.7676846 42.0080154,15.0000692 C42.0080154,15.2324538 41.9897846,15.4609154 41.9577077,15.6852231 L55.3081692,15.5336077 C55.5604,16.9355308 56.7837077,18.0000692 58.2580923,18.0000692 C59.9150154,18.0000692 61.2580923,16.6569923 61.2580923,15.0000692 C61.2580923,13.3431462 59.9150154,12.0000692 58.2580923,12.0000692" id="Fill-45"></path>
            <path d="M27.0323385,6.95026154 C27.0323385,5.9838 26.2488769,5.20033846 25.2824154,5.20033846 C24.3159538,5.20033846 23.5322615,5.9838 23.5322615,6.95026154 C23.5322615,7.91672308 24.3159538,8.70018462 25.2824154,8.70018462 C25.6675692,8.70018462 26.0224923,8.57441538 26.3114154,8.36349231 L31.3781846,12.2242615 C31.6221077,11.8674923 31.9114923,11.5393385 32.2394154,11.2467231 L26.9400308,7.5078 C26.9991077,7.33264615 27.0323385,7.14549231 27.0323385,6.95026154" id="Fill-47"></path>
            <path d="M42.3152385,18.1923692 C42.1010846,18.1923692 41.8993923,18.2463692 41.7233154,18.3414462 L41.0903154,17.8439077 C40.8724692,18.1519846 40.6211615,18.4383692 40.3393923,18.6975231 L41.0877769,19.2089077 C41.0734692,19.2846 41.0651615,19.3626 41.0651615,19.4424462 C41.0651615,20.1326769 41.6247769,20.6922923 42.3152385,20.6922923 C43.0054692,20.6922923 43.5653154,20.1326769 43.5653154,19.4424462 C43.5653154,18.7519846 43.0054692,18.1923692 42.3152385,18.1923692" id="Fill-49"></path>
        </g>
        <g id="it" transform="translate(63.000000, 11.000000)" fill="#F7971C">
            <path d="M26.1777231,15.0000308 L27.2494154,11.0001077 L23.9994923,11.0001077 L25.3393385,6.00003077 L22.3312615,6.00003077 C21.7811077,7.89649231 19.8285692,9.42256923 17.9221846,9.42256923 L17.4994154,11.0001077 L14.2494923,11.0001077 L13.1778,15.0000308 L16.4277231,15.0000308 L13.4801077,26.0001077 C12.8881846,28.2090308 14.1991846,30.0000308 16.4083385,30.0000308 L20.9085692,30.0000308 L21.7123385,27.0000308 C20.5561846,27.0000308 19.9640308,26.0603385 20.2483385,24.9999538 L22.9278,15.0000308 L26.1777231,15.0000308 Z" id="Fill-24"></path>
            <polygon id="Fill-26" points="2.49987692 11.0000385 4.69564615 14.0000385 0.408415385 29.9999615 6.90849231 29.9999615 11.9994923 11.0000385"></polygon>
            <path d="M12.7581462,4.00004615 C12.7581462,1.79089231 10.7435308,0.000123076923 8.25814615,0.000123076923 C5.77299231,0.000123076923 3.75814615,1.79089231 3.75814615,4.00004615 C3.75814615,6.2092 5.77299231,7.99996923 8.25814615,7.99996923 C10.7435308,7.99996923 12.7581462,6.2092 12.7581462,4.00004615" id="Fill-51"></path>
        </g>
        <g id="Trip" transform="translate(0.000000, 17.000000)" fill="#107AC5">
            <path d="M54.2406923,19.0279 C53.8276154,20.4748231 51.5566154,21.0339769 50.8578462,19.9029769 C50.6086154,19.4998231 50.4736154,19.0255923 50.4763846,18.5049769 C50.478,18.2379769 50.5052308,17.9629 50.5820769,17.6765154 C50.5827692,17.6732846 50.5841538,17.6709769 50.5848462,17.6677462 L50.5843846,17.6675154 L51.7456154,13.3334385 C51.8224615,13.0470538 51.9424615,12.7719769 52.0841538,12.5049769 C52.3603846,11.9843615 52.7494615,11.5101308 53.2146923,11.1069769 C54.5194615,9.97597692 56.4906923,10.5351308 56.1286154,11.9820538 L54.2406923,19.0279 Z M57.4689231,6.99997692 C57.4682308,6.99997692 57.4675385,7.00020769 57.4666154,7.00020769 C57.4656923,7.00020769 57.4647692,6.99997692 57.4636154,6.99997692 C55.8853846,6.99997692 54.2060769,7.97220769 52.7882308,9.52066923 L53.4634615,6.99997692 L44.4639231,6.99997692 L46.6596923,9.99997692 L41.8366154,27.9999769 L47.8366154,27.9999769 L49.5837692,21.4793615 C50.172,23.0278231 51.3304615,24.0000538 52.9084615,24.0000538 C52.9096154,24.0000538 52.9105385,23.9998231 52.9116923,23.9998231 C52.9123846,23.9998231 52.9130769,24.0000538 52.9130769,24.0000538 C56.2273846,24.0000538 59.6335385,21.3136692 60.5213077,18.0000538 C60.5307692,17.9649769 61.8516923,13.0350538 61.8611538,12.9999769 C62.7491538,9.68636154 60.7825385,6.99997692 57.4689231,6.99997692 L57.4689231,6.99997692 Z" id="Fill-28"></path>
            <polygon id="Fill-30" points="33.4640308 7.00004615 35.6598 10.0000462 31.9084154 24.0001231 37.9084154 24.0001231 42.4635692 7.00004615"></polygon>
            <path d="M28.7486538,7.00004615 C28.7479615,7.00004615 28.7475,7.00027692 28.7475,7.00027692 C28.7458846,7.00027692 28.7449615,7.00004615 28.7449615,7.00004615 C27.4725,7.00004615 26.0959615,7.83658462 24.8763462,9.19143077 L25.4636538,7.00004615 L16.4641154,7.00004615 L18.6598846,10.0000462 L14.9085,24.0001231 L20.9085,24.0001231 L23.8401923,13.0591231 C23.9094231,12.8705846 23.9888077,12.6850462 24.0843462,12.5048154 C24.3603462,11.9842 24.7494231,11.5102 25.2146538,11.1070462 C26.5196538,9.97604615 28.4908846,10.5352 28.1285769,11.9821231 L27.5867308,14.0050462 L32.0867308,14.0050462 C32.2388077,13.4373538 32.3528077,13.0113538 32.3560385,13.0000462 C33.2438077,9.68643077 31.6288846,7.00004615 28.7486538,7.00004615" id="Fill-32"></path>
            <polygon id="Fill-34" points="1.33975385 5.38461538e-05 -9.23076923e-05 5.00013077 5.99990769 5.00013077 0.908907692 24.0000538 6.90890769 24.0000538 11.9999077 5.00013077 17.9999077 5.00013077 19.3397538 5.38461538e-05"></polygon>
        </g>
    </g>
</svg>